<svg version="1.1" height="25600" width="38400" xmlns="http://www.w3.org/2000/svg">
  <g transform="matrix(10,0,0,10,19200,20640)">
    <path d="M360 -31 Q383 -31 383 -8 L383 34 383 34.2 Q381.9 55 360 55 L278.8 55 Q274.8 71.6 262 84.5 L261.9 84.6 Q243.6 103 217.5 103 L217.3 103 Q191.2 103 172.9 84.6 L172.9 84.5 Q160 71.6 156.1 55 L-156 55 Q-160 71.6 -172.8 84.5 L-172.9 84.6 Q-191.2 103 -217.3 103 L-217.5 103 Q-243.6 103 -261.9 84.6 L-261.9 84.5 Q-274.8 71.6 -278.7 55 L-360 55 Q-381.5 55 -382.8 34.9 L-383 17 -383 -4 Q-383 -31 -360 -31 L360 -31" fill="none" stroke="brown" stroke-width="2"/>
  </g>
</svg>
